# xmcd
#
# Track frame offsets:
#	150
#	25272
#	44985
#	70112
#
# Disc length: 1194 seconds
#
# Revision: 1
# Processed by: cddbd v1.5.1PL0 Copyright (c) Steve Scherf et al.
# Submitted via: CDex 1.50Beta5
#
DISCID=3504a804
DTITLE=憲三郎 - 浪漫
DYEAR=1996
DGENRE=World
TTITLE0=憲三郎/浪漫
TTITLE1=憲三郎/ブラ踊り
TTITLE2=浪漫
TTITLE3=ブラ踊り
EXTD=
EXTT0=
EXTT1=
EXTT2=
EXTT3=
PLAYORDER=
